<svg width="21" height="21" viewBox="0 0 21 21" fill="none" xmlns="http://www.w3.org/2000/svg">
<path d="M15.9102 20.6588H4.77113C2.13547 20.6588 0 18.5137 0 15.878V8.75019C0 7.44194 0.808015 5.79706 1.84689 4.98904L7.03165 0.948968C8.58997 -0.26305 11.0813 -0.320765 12.6974 0.814299L18.6421 4.97942C19.7867 5.77782 20.6813 7.49004 20.6813 8.88486V15.8877C20.6813 18.5137 18.5459 20.6588 15.9102 20.6588ZM7.91662 2.08404L2.73186 6.12411C2.04889 6.66279 1.44288 7.88443 1.44288 8.75019V15.878C1.44288 17.7153 2.93386 19.2159 4.77113 19.2159H15.9102C17.7475 19.2159 19.2384 17.7249 19.2384 15.8877V8.88486C19.2384 7.96138 18.5747 6.68202 17.8148 6.16259L11.8701 1.99746C10.7735 1.22793 8.96511 1.2664 7.91662 2.08404Z" fill="#19376D"/>
<path d="M10.3406 16.8111C9.94619 16.8111 9.61914 16.484 9.61914 16.0897V13.2039C9.61914 12.8095 9.94619 12.4824 10.3406 12.4824C10.735 12.4824 11.062 12.8095 11.062 13.2039V16.0897C11.062 16.484 10.735 16.8111 10.3406 16.8111Z" fill="#19376D"/>
</svg>
