<svg width="21" height="22" viewBox="0 0 21 22" fill="none" xmlns="http://www.w3.org/2000/svg">
<path d="M5.47924 22C4.54231 22 3.65283 21.7747 2.87008 21.324C1.01995 20.2566 0 18.0863 0 15.228V6.77197C0 3.90189 1.01995 1.7434 2.87008 0.67602C4.72021 -0.391364 7.10404 -0.189747 9.5946 1.24529L16.9121 5.46739C19.3908 6.90243 20.7666 8.87117 20.7666 11.0059C20.7666 13.1407 19.4027 15.1094 16.9121 16.5445L9.5946 20.7666C8.15956 21.5849 6.7601 22 5.47924 22ZM5.47924 1.76712C4.83881 1.76712 4.26954 1.90944 3.75956 2.20594C2.4787 2.94125 1.77897 4.56604 1.77897 6.77197V15.2162C1.77897 17.4221 2.4787 19.035 3.75956 19.7822C5.04043 20.5294 6.79568 20.3159 8.70511 19.2129L16.0226 14.9908C17.9321 13.8879 18.9876 12.4766 18.9876 10.9941C18.9876 9.5116 17.9321 8.10027 16.0226 6.99731L8.70511 2.77521C7.54285 2.11106 6.45174 1.76712 5.47924 1.76712Z" fill="#292D32"/>
</svg>
