<svg width="22" height="26" viewBox="0 0 22 26" fill="none" xmlns="http://www.w3.org/2000/svg">
<path d="M11 13.5439C7.26658 13.5439 4.22803 10.5054 4.22803 6.77197C4.22803 3.03855 7.26658 0 11 0C14.7334 0 17.772 3.03855 17.772 6.77197C17.772 10.5054 14.7334 13.5439 11 13.5439ZM11 1.7666C8.2441 1.7666 5.99463 4.01607 5.99463 6.77197C5.99463 9.52787 8.2441 11.7773 11 11.7773C13.7559 11.7773 16.0054 9.52787 16.0054 6.77197C16.0054 4.01607 13.7559 1.7666 11 1.7666Z" fill="#292D32"/>
<path d="M21.1167 25.3213C20.6338 25.3213 20.2334 24.9208 20.2334 24.438C20.2334 20.3748 16.0879 17.0771 11.0001 17.0771C5.91221 17.0771 1.7666 20.3748 1.7666 24.438C1.7666 24.9208 1.36617 25.3213 0.883301 25.3213C0.40043 25.3213 0 24.9208 0 24.438C0 19.4091 4.93469 15.3105 11.0001 15.3105C17.0654 15.3105 22 19.4091 22 24.438C22 24.9208 21.5996 25.3213 21.1167 25.3213Z" fill="#292D32"/>
</svg>
