<svg width="23" height="23" viewBox="0 0 23 23" fill="none" xmlns="http://www.w3.org/2000/svg">
<path d="M12.4319 5.07296H4.26476C2.46966 5.07296 1 6.54262 1 8.33772V20.2631C1 21.7852 2.09176 22.4361 3.42496 21.6908L7.55052 19.3918C7.99143 19.1503 8.70528 19.1503 9.13568 19.3918L13.2613 21.6908C14.5945 22.4361 15.6862 21.7852 15.6862 20.2631V8.33772C15.6967 6.54262 14.227 5.07296 12.4319 5.07296Z" stroke="#292D32" stroke-width="1.57465" stroke-linecap="round" stroke-linejoin="round"/>
<path d="M15.6967 8.33772V20.2631C15.6967 21.7852 14.605 22.4256 13.2718 21.6908L9.14619 19.3918C8.70529 19.1503 7.99143 19.1503 7.55053 19.3918L3.42496 21.6908C2.09176 22.4256 1 21.7852 1 20.2631V8.33772C1 6.54262 2.46966 5.07296 4.26476 5.07296H12.4319C14.227 5.07296 15.6967 6.54262 15.6967 8.33772Z" stroke="#292D32" stroke-width="1.57465" stroke-linecap="round" stroke-linejoin="round"/>
<path d="M21.9951 4.26476V16.1901C21.9951 17.7123 20.9033 18.3526 19.5701 17.6178L15.6965 15.4553V8.33785C15.6965 6.54275 14.2268 5.07309 12.4317 5.07309H7.29834V4.26476C7.29834 2.46966 8.768 1 10.5631 1H18.7303C20.5254 1 21.9951 2.46966 21.9951 4.26476Z" stroke="#292D32" stroke-width="1.57465" stroke-linecap="round" stroke-linejoin="round"/>
</svg>
