<svg width="21" height="24" viewBox="0 0 21 24" fill="none" xmlns="http://www.w3.org/2000/svg">
<path d="M10.383 14.3047C8.02465 14.3047 6.09814 12.3893 6.09814 10.0199C6.09814 7.65059 8.02465 5.74623 10.383 5.74623C12.7413 5.74623 14.6678 7.66166 14.6678 10.031C14.6678 12.4004 12.7413 14.3047 10.383 14.3047ZM10.383 7.40701C8.94366 7.40701 7.75892 8.58062 7.75892 10.031C7.75892 11.4814 8.93259 12.655 10.383 12.655C11.8334 12.655 13.007 11.4814 13.007 10.031C13.007 8.58062 11.8223 7.40701 10.383 7.40701Z" fill="#0B2447"/>
<path d="M10.3817 23.8156C8.74306 23.8156 7.09334 23.1956 5.80901 21.9666C2.54281 18.8222 -1.06662 13.8066 0.295221 7.83888C1.5242 2.42474 6.25188 0 10.3817 0H10.3928C14.5226 0 19.2503 2.42474 20.4792 7.84995C21.83 13.8177 18.2206 18.8222 14.9544 21.9666C13.67 23.1956 12.0203 23.8156 10.3817 23.8156ZM10.3817 1.66078C7.15978 1.66078 3.0189 3.37692 1.92279 8.20425C0.727024 13.4191 4.0043 17.9143 6.97155 20.7597C8.887 22.6087 11.8875 22.6087 13.8029 20.7597C16.7591 17.9143 20.0364 13.4191 18.8627 8.20425C17.7556 3.37692 13.6036 1.66078 10.3817 1.66078Z" fill="#0B2447"/>
</svg>
